<?xml version="1.0" encoding="UTF-8"?>
<svg id="Warstwa_16" data-name="Warstwa 16" xmlns="http://www.w3.org/2000/svg" viewBox="0 0 2048 2048">
  <defs>
    <style>
      .cls-1 {
        fill: #fff;
      }

      .cls-2 {
        fill: #f23535;
      }

      .cls-3 {
        fill: #1d1d1b;
      }

      .cls-4 {
        opacity: .2;
      }
    </style>
  </defs>
  <path class="cls-2" d="M1963.71,1525.39l-73.58,35.56c-34.05,13.66-82.67,41.18-120.74,94.72-34.24,48.14-45.36,97.19-48.66,129.84l-4.94,48.74-43.47,22.58c-48.49,25.17-105.29,37.92-168.84,37.92-34.34,0-67.26-3.44-92.35-7.11-25.07-3.65-42.31-7.52-45.24-8.38l-28.96-24.02c-35.56,6.74-88.5,21.22-141.95,52.01l-48.47,27.93-46.7-30.8c-25.07-16.46-98.41-58.87-159.55-74.32-28.84,8.86-91.38,31.76-153.65,78.92l-37.86,28.65-68.21-23.5c-29.73-11.97-85.02-36.85-142.61-75.97l-20.52,66.91c-77.06-41.1-150.3-113.11-208.24-191.68-57.95-78.55-100.61-163.6-116.57-230.76-23.52-99.02-25.23-204.41-5.25-300.74C39.58,882.02,122.39,586.66,126.12,573.8l14.05-48.49,48.62-13.58c23.55-6.57,55.31-23.81,89.42-48.27,21.09-56.13,62.75-126.32,144.9-186.98,56.03-41.36,143.15-69.98,266.36-87.47,84.38-11.99,154.83-13.99,157.77-14.07l87.57-2.37,4.28,69.94c27.13-3.01,62.48-8.36,110.93-17.9l91.85-18.09,11.99,73.36c41.18-6.28,87.49-9.43,138.57-9.43,67.22,0,118.8,5.62,120.96,5.87l84.25,9.33-3.11,71.25h.95c46.47,0,219.39-11.37,219.39-11.37,0,0-28.2,241.37,78.11,285.55l55.15,25.36-2.47,60.65c-.35,9.06-5.5,90.35-72.2,158.45-16.64,17.74-60.07,59.08-126.26,87.76,3.09,6.16,20.41,26.49,20.41,26.49,6.32,7.23,27.79,33.85,38.4,72.68,12.05,44.15,5.97,87.96-16.54,125.72,60.52,21.82,98.36,47.13,103.43,50.61l1.34,.93,1.32,.97c38.19,28.37,108,92.97,146.67,207.03l21.47,77.66Z"/>
  <path class="cls-4" d="M423.07,777.31s-133.56,.96-200.45-71.74l78.52-98.17,73.68,2.2,48.25,167.71"/>
  <path class="cls-4" d="M928.22,559.28s29.07-135.23,107.6-171.58l-168.68,21.81,29.08,113.66,32,36.11"/>
  <path class="cls-4" d="M1572.86,513.91s-75.35,18.35-125.69,149.36c-.14,.38,.14-.37,0,0-.99-1.27-2.71-3.27-2.71-3.27l-33.48-51.75,7.75-87.25,154.14-7.08Z"/>
  <path class="cls-4" d="M708.19,1746.73s73.15-152.09,285.45-214.64l150.39,38.41,29.13-38.41,167.59,133.76-139.17,97.42-148.32-47.99-214.75,5.82-130.32,25.62"/>
  <path class="cls-4" d="M1653.8,1570.5l-103.24,180.42-133.05-26.9-50.16-92.54-19.78-58.57s82.42-1.62,156.96,24.65c.07,.02,.14,.05,.2,.07l5.12-48.83,47.98-51.62,58.66-40.66s42.4,57.16,37.31,113.98Z"/>
  <g>
    <path class="cls-4" d="M1511.3,877.73l-85.79-20.36-138.28-95.75s-5.72-3.01-3.92-1.58c-.94-.75-5.3-5.12-6.38-5.79-83.07-51.49-55.54-115-55.54-115l-37.13,45.08-116.14,81.43-84.01,10.45-.63-10.45-269.52-101.56-192.25-24.95-14.65,138.05s67.37-33.35,133.02-27.54c65.65,5.82,251.78,66.13,307.03,251.18l47.99-43.47-4.58-75.51c63.05,20.38,98.82,15.83,98.82,15.83l115.16,191.44,100.33,58.8,227.42,3.59,21.42-28.17-42.36-245.74Zm-211.74-104.76c2.53,2.01,4.96,3.94,7.05,5.61-1.88-1.5-4.21-3.35-7.05-5.61Zm-15.01-11.94c.46,.37,.96,.76,1.48,1.18-.49-.39-.98-.78-1.48-1.18Zm2.68,2.13c.7,.56,1.44,1.15,2.21,1.76-.72-.57-1.45-1.16-2.21-1.76Zm7.76,6.17c.17,.13,.33,.26,.5,.4-.17-.13-.33-.26-.5-.4Zm2.39,1.9c.23,.18,.46,.37,.69,.55-.23-.19-.45-.36-.69-.55Zm15.26,12.14c.69,.55,.76,.61,0,0h0Zm-4.93-3.92c.22,.17,.43,.34,.64,.51-.21-.17-.41-.33-.64-.51Zm2.92,2.33c.26,.21,.5,.4,.72,.57-.22-.17-.46-.36-.72-.57Zm.96,.76s.02,.02,.03,.03c-.01,0-.02-.02-.03-.03Z"/>
    <path class="cls-4" d="M947.8,1003.25c.04,.12,.07,.25,.11,.37-.04-.13-.07-.25-.11-.37Z"/>
    <path class="cls-4" d="M947.11,1000.95c.02,.06,.04,.12,.06,.19l-.06-.19Z"/>
  </g>
  <polygon class="cls-1" points="799.53 1499.66 690.46 1322.57 708.19 1122.02 931.28 1213.63 1080.89 1360.08 1126.69 1525.89 887.78 1495.92 799.53 1499.66"/>
  <path class="cls-1" d="M1029.68,960.48s82.32,15,131.67,20.97c0,0,2.42,53.32,28.11,97.42,0,0-95.42-7.89-143.59-39.88,0,0-14.8-39.25-16.19-78.52Z"/>
  <g>
    <path class="cls-3" d="M1738.06,1310s-48.97-33.68-126.32-53.39c0,0-.35,.04-1.03,.16-9.27-34.85-26.59-63.61-40.64-82.75,7.48-4.22,14.36-9.04,20.43-14.56,58.38-52.92,5.42-113.46,5.42-113.46-11.74-11.84-56.75-62.01-45.73-117.46,2.68-13.53,4.45-24.2,9.7-36.13,16.44-3.77,31.72-8.9,45.67-14.81l.02-.02c56.79-24.08,92.06-60.77,99.02-68.27l.14-.14c44.7-45.28,46.89-99.21,46.89-99.21-152.34-70.08-134.33-272.99-134.33-272.99-61.26,9.17-150.89,7.83-216.26,5.01-3.25-22.78-2.35-50.68-1.11-79.04,0,0-195.02-21.63-314.68,22.31-15.64-42.68-21.2-75.17-21.2-75.17-95.97,18.89-146.86,23.01-187.58,23.26-7.7,.04-15.24-.06-22.58-.29-4.37-20.89-6.14-45.71-7.68-70.97,0,0-269.01,7.27-372.73,83.86-75.89,56.03-108.09,120.92-121.58,169.43-34.32,26.9-89.98,65.61-142.2,80.2,0,0-84.01,289.84,70.14,570.96-44.85,165.83-19.63,417.7,173.06,582.71,0,0,4.9-43.38,23.59-90.74,86.15,117.19,249.36,173.86,251.92,174.73l.02,.02c103.25-78.16,205.59-99.79,205.59-99.79,97.6,16.17,212.24,91.79,212.24,91.79,105.14-60.6,208.68-68.78,224.68-69.71,6.8,10.32,15.47,20.97,26.39,31.89,0,0,128.93,37.82,229.75-14.52,3.34-32.96,14.98-102.92,64.97-173.24,56.81-79.89,130.31-114.06,160.88-126.32-29.11-85.88-80.94-138.14-114.86-163.34Zm-190.53,392.59s-50.2,12.75-103.06-4.51c-18.02-29.23-51.42-77.99-100.38-128.65,15.31-17.24,30.12-46.25,33.43-94.84,0,0-42.87,25.17-101.33,32.96-36.61-29.21-78.77-56.53-126.46-78.28-58.73-191.35-207.46-315.86-384.52-342.39-35.12-5.27-66.33-3.54-93.67,2.43l-.74-.06c-.04,.08-.08,.14-.1,.23-100.69,22.37-149,102.34-149,102.34,38.07-20.48,85.8-25.42,123.85-25.28-23.44,126.69,33.45,253.27,76.1,326.3-.37,.21-.74,.39-1.09,.6-71.05,39.1-111.71,88.85-111.71,88.85,0,0,47.65-19.03,151.04-29.87h.02c.25-.04,71.3-5.89,108.48-6.84,0,0,7.5-.16,7.64-.16,184.88-3.79,280.8,79.97,283.68,82.52l.06,.06s-.04-.54-.12-1.54l3.54,4.96,.06,.06c8.28-26.82,10.36-54.14,9.85-77.45-.1-4.68-.33-9.19-.62-13.51,.68,.49,1.36,.95,2.04,1.44,39.94,28.68,88.02,68.97,138.31,124.11,2.25,2.47,4.16,5.03,5.85,7.66-3.6,.25-7.19,.54-10.75,.93-86.5,8.9-161.67,49.77-161.67,49.77-122.63-79.99-215.7-78.05-215.7-78.05-93.01,17.96-178.58,66.25-225.84,96.88-90.41-43.9-150.67-105.31-187.95-154.72,.47-.58,.97-1.15,1.46-1.71h-2.72c-34.53-46.18-48.82-81.49-48.82-81.49-25.11,26.72-40.11,55.21-49.05,80.57-9.6-14.96-138.12-225.55,6.39-577.85-1.09,.41-45.05,17.74-85.41,58.4-24.45-56.28-83.82-218.05-49.09-396.92,0,0,27.97-6.86,56.63-30.12,7.27,36.21,26.74,87.2,76.92,137.9,0,0-40.62-257.62,102.38-358.44,0,0,63.55-56.88,246.77-69.48,0,0,.95,123.54,152.52,206.41,0,0-36.05-67.9-36.98-134.45,53.68-1.63,109.9-11.93,109.9-11.93,0,0,3.83,49.25,52.55,118.33,44.35,74.16,116.55,94.22,116.55,94.22-43.63,77.78-125.76,94.33-125.76,94.33-248.87,64.17-376.34-272.45-376.34-272.45-228.53,43.38-157.61,333.47-157.61,333.47l.19-.23,.02-.02c.06-.06,.12-.16,.23-.27,7.75-9.13,123.33-139.6,296.06-22.93,.04,.02,.1,.06,.14,.1,2.02,1.44,4.06,2.84,6.14,4.22,58.77,39.72,135.51,64.17,230.41,40.44,208.49-52.12,231.71-217.14,231.71-217.14-70.93-15.57-119.05-66.52-150.96-120.14,40.19-11.74,103.66-22.74,196.19-19.36,0,0-12.03,122.94,129.98,221.28,0,0-26.8-66.58-23.15-130.85,46.76,5.07,88.83,2.31,108.29,.43,1.4,10.34,3.67,22.99,7.02,38.46,21.34,98.26,89.47,155.03,104.94,166.84-4.14,4.47-13.6,14.69-13.86,14.96-128.13,124.86-353.47,1.15-353.47,1.15,1.83,3.65,18.64,45.65,60.34,83.47,31.13,28.24,76.05,54.14,138.97,60.09,.29,.02,.58,.04,.89,.08-1.96,9.48-20.54,107.35,36.03,165.87,0,0,19.45,21.07,10.49,39.98l-.39,.82c-5.44,10.44-19.82,20.15-51.29,25.11,0,0-1.22-36.71-61.55-43.92-33.52-4.02-75.56,22.25-114.41,4.02-12.85-33.39-25.96-71.87-36.01-111.57,28.78-51.83,41.92-87.65,41.92-87.65-24.43,1.94-45.28,3.48-60.36,4.55-23.46,.78-182.74,4.66-292.81-28.74,0,0-8.16,93.01-1.63,134.58,0,0-31.25,16.73-76.55,40.19,0,0,31.09,24.23,84.5,53.68,83.61,46.06,221.92,104.85,381.28,103.39-14.5,12.36-68,52.76-145.54,50.26,0,0,18.44,41.63,98.71,61.76,0,0,40.68-30.96,107.78-47.36,70.84-17.32,117.44,2.02,141.97,18.4-.27,.14-.54,.27-.78,.41-24.91,12.75-52.18,31.64-74.98,59.31,.99-.47,47.71-23.01,159.92-2.16,0,0,102.53,26.9,126.17,99.52,0,0-176.83,109.82-202.06,264.23Zm-673.22-414.94l-16.81,42.66-69.38-78.42-48.76,54.71c-8.57-49.54-7-94.86-2.33-130.71,261.12,47.75,319.11,258.4,329.62,311.24l-2.02,2.33s.91,.14,2.57,.49c.06,.41,.14,.82,.21,1.19-1.05-.64-2.12-1.28-3.19-1.92-33.17-19.47-77.81-34.81-137.9-40.48-46-4.33-88.04,.95-125.43,11.52-16.79-25.07-29.77-50.3-39.59-75.21l24.18-41.92,85.37,76.61,15.59-49.13,74.3,43.12-86.44-126.09Zm315.16-208.76s-95.42-7.89-143.58-39.88c0,0-14.81-39.26-16.19-78.53,0,0,82.32,15,131.65,20.97,0,0,2.43,53.33,28.12,97.44Z"/>
    <path class="cls-3" d="M1462.01,1462.1c3.87,33.43-20.99,70.51-20.99,70.51,31.99,28.59,63.51,64.95,63.51,64.95,15.99-51.38,111.96-141.05,111.96-141.05-50.9-23.75-154.48,5.58-154.48,5.58Z"/>
  </g>
</svg>